<svg width="98" height="97" xmlns="http://www.w3.org/2000/svg" xmlns:xlink="http://www.w3.org/1999/xlink" xml:space="preserve" overflow="hidden"><g transform="translate(-1038 -117)"><g><g><g><g><path d="M1085.5 125 1087.5 125 1087.5 130 1085.5 130Z" fill="#FFFFFF" fill-rule="nonzero" fill-opacity="1"/><path d="M1092.5 138.115C1092.5 141.429 1089.81 144.115 1086.5 144.115 1083.19 144.115 1080.5 141.429 1080.5 138.115 1080.5 134.801 1083.19 132.115 1086.5 132.115 1089.81 132.115 1092.5 134.801 1092.5 138.115Z" fill="#FFFFFF" fill-rule="nonzero" fill-opacity="1"/><path d="M1085.5 146.115 1087.5 146.115 1087.5 151.115 1085.5 151.115Z" fill="#FFFFFF" fill-rule="nonzero" fill-opacity="1"/><path d="M1076.86 146.326 1078.28 147.773 1081.75 144.221 1080.33 142.773 1076.86 146.326Z" fill="#FFFFFF" fill-rule="nonzero" fill-opacity="1"/><path d="M1096.14 129.789 1094.72 128.342 1091.25 131.894 1092.67 133.342 1096.14 129.789Z" fill="#FFFFFF" fill-rule="nonzero" fill-opacity="1"/><path d="M1094.5 137 1099.5 137 1099.5 139 1094.5 139Z" fill="#FFFFFF" fill-rule="nonzero" fill-opacity="1"/><path d="M1091.25 144.221 1094.72 147.773 1096.14 146.326 1092.67 142.773 1091.25 144.221Z" fill="#FFFFFF" fill-rule="nonzero" fill-opacity="1"/><path d="M1081.75 131.894 1078.28 128.342 1076.86 129.789 1080.33 133.342 1081.75 131.894Z" fill="#FFFFFF" fill-rule="nonzero" fill-opacity="1"/><path d="M1074.7 205.175 1072.95 206.115 1097.12 206.115 1097.21 206.082C1107.69 202.054 1118.53 199.044 1129.59 197.094L1130 197.021 1130 186.721 1129.42 186.812C1110.28 189.807 1091.78 196.015 1074.7 205.175Z" fill="#FFFFFF" fill-rule="nonzero" fill-opacity="1"/><path d="M1105.82 205.14 1102.86 206.115 1130 206.115 1130 199.052 1129.41 199.152C1121.42 200.592 1113.53 202.593 1105.82 205.14Z" fill="#FFFFFF" fill-rule="nonzero" fill-opacity="1"/><path d="M1129.43 174.225C1125.26 174.78 1121.12 175.507 1117 176.364L1117 171C1118.18 170.973 1120.54 170.742 1121.93 169.4 1123.84 167.56 1123.47 164.068 1123.47 164.068 1123.47 164.068 1120 163.568 1118.08 165.409 1117.62 165.876 1117.25 166.431 1117 167.042L1117 165.619C1118.06 164.581 1118.7 163.196 1118.81 161.719 1118.81 159.063 1116.04 156.541 1116.04 156.541 1116.04 156.541 1113.27 159.063 1113.27 161.718 1113.37 163.155 1113.99 164.508 1115 165.532L1115 167.042C1114.75 166.431 1114.38 165.876 1113.92 165.409 1112 163.568 1108.53 164.076 1108.53 164.076 1108.53 164.076 1108.16 167.568 1110.07 169.408 1111.46 170.746 1113.82 170.977 1115 171L1115 176.784C1091.97 181.863 1070.2 191.529 1050.99 205.204L1049.72 206.111 1068.91 206.111 1069.02 206.044C1087.71 195.256 1108.25 188.042 1129.58 184.772L1130 184.707 1130 174.15Z" fill="#FFFFFF" fill-rule="nonzero" fill-opacity="1"/><path d="M1073.5 137 1078.5 137 1078.5 139 1073.5 139Z" fill="#FFFFFF" fill-rule="nonzero" fill-opacity="1"/><path d="M1052.47 200.467 1051.2 200.289C1049.03 199.983 1046.72 199.714 1044.01 199.447L1044.01 206.115 1044.73 206.115 1044.86 206.015C1047.4 204.072 1049.49 202.541 1051.42 201.198Z" fill="#FFFFFF" fill-rule="nonzero" fill-opacity="1"/><path d="M1069.29 190.312 1069.46 190.221C1073.17 188.258 1076.98 186.41 1080.8 184.727L1081.97 184.208 1080.76 183.8C1068.83 179.782 1056.51 177.06 1044 175.683L1044 185.655C1052.47 186.588 1060.85 188.128 1069.1 190.263Z" fill="#FFFFFF" fill-rule="nonzero" fill-opacity="1"/><path d="M1061 160.575 1061 166.044C1055.39 164.924 1049.72 164.082 1044 163.517L1044 173.675C1057.82 175.186 1071.41 178.318 1084.5 183.006L1084.68 183.071 1084.86 183C1088.9 181.336 1093.06 179.8 1097.22 178.448L1098.46 178.043 1097.26 177.516C1086.25 172.658 1074.77 168.953 1063 166.461L1063 160.575C1064.18 160.548 1066.54 160.318 1067.93 158.975 1069.84 157.135 1069.47 153.644 1069.47 153.644 1069.47 153.644 1066 153.14 1064.08 154.98 1063.62 155.447 1063.25 156.002 1063 156.613L1063 155.19C1064.06 154.152 1064.7 152.767 1064.81 151.29 1064.81 148.635 1062.04 146.112 1062.04 146.112 1062.04 146.112 1059.27 148.635 1059.27 151.29 1059.37 152.726 1059.99 154.077 1061 155.1L1061 156.609C1060.75 155.998 1060.38 155.443 1059.92 154.976 1058 153.136 1054.53 153.644 1054.53 153.644 1054.53 153.644 1054.16 157.135 1056.07 158.975 1057.46 160.318 1059.82 160.548 1061 160.575Z" fill="#FFFFFF" fill-rule="nonzero" fill-opacity="1"/><path d="M1054.9 198.839 1055.06 198.733C1058.48 196.489 1062.03 194.333 1065.61 192.32L1066.72 191.695 1065.48 191.395C1058.4 189.708 1051.23 188.463 1044 187.666L1044 197.431C1047.58 197.784 1051.18 198.242 1054.71 198.808Z" fill="#FFFFFF" fill-rule="nonzero" fill-opacity="1"/></g></g></g></g></g></svg>